<svg width="24" height="24" viewBox="0 0 24 24" fill="none" xmlns="http://www.w3.org/2000/svg">
<path d="M18.3236 23.8395C17.7318 23.8395 16.9725 23.6497 16.0234 23.0914L12.6847 21.115C12.3386 20.914 11.6686 20.914 11.3336 21.115L7.98384 23.0914C6.00745 24.2638 4.84619 23.7948 4.32138 23.4152C3.80775 23.0355 3.00379 22.0641 3.5286 19.8309L4.32138 16.4029C4.41071 16.0456 4.23206 15.4315 3.96407 15.1635L1.1949 12.3943C-0.189691 11.0097 -0.0780307 9.82614 0.111792 9.24547C0.301614 8.66484 0.90458 7.63756 2.82514 7.31375L6.3871 6.72195C6.72208 6.66612 7.20222 6.30881 7.34738 6.00732L9.32376 2.06572C10.217 0.267985 11.3895 0 12.0036 0C12.6177 0 13.7902 0.267985 14.6834 2.06572L16.6487 5.99616C16.805 6.29764 17.2851 6.65495 17.6201 6.71078L21.1821 7.30258C23.1138 7.6264 23.7168 8.65367 23.8954 9.2343C24.0741 9.81497 24.1857 10.9986 22.8123 12.3832L20.0431 15.1635C19.7751 15.4315 19.6077 16.0344 19.6858 16.4029L20.4786 19.8309C20.9922 22.0641 20.1995 23.0355 19.6858 23.4152C19.4067 23.6162 18.96 23.8395 18.3236 23.8395ZM12.0036 19.2838C12.5507 19.2838 13.0979 19.4178 13.5333 19.6746L16.872 21.651C17.8434 22.2316 18.4576 22.2316 18.692 22.0641C18.9265 21.8966 19.094 21.3048 18.8484 20.2105L18.0556 16.7826C17.8434 15.8558 18.1896 14.661 18.8595 13.9799L21.6287 11.2107C22.1758 10.6636 22.4215 10.1276 22.3098 9.75914C22.187 9.39063 21.6734 9.08915 20.9141 8.96632L17.3521 8.37452C16.4923 8.22936 15.5544 7.53707 15.1636 6.75545L13.1984 2.82501C12.841 2.11038 12.3944 1.68607 12.0036 1.68607C11.6128 1.68607 11.1661 2.11038 10.82 2.82501L8.84363 6.75545C8.45282 7.53707 7.51487 8.22936 6.65508 8.37452L3.10429 8.96632C2.345 9.08915 1.83136 9.39063 1.70853 9.75914C1.58571 10.1276 1.84253 10.6748 2.38966 11.2107L5.15884 13.9799C5.8288 14.6499 6.17494 15.8558 5.96279 16.7826L5.17 20.2105C4.91318 21.316 5.09184 21.8966 5.32633 22.0641C5.56081 22.2316 6.16378 22.2204 7.14639 21.651L10.485 19.6746C10.9093 19.4178 11.4565 19.2838 12.0036 19.2838Z" fill="white"/>
</svg>
