<svg width="49" height="48" viewBox="0 0 49 48" fill="none" xmlns="http://www.w3.org/2000/svg">
<path d="M24.3684 47.0352C37.3902 47.0352 48.0015 36.4974 48.0015 23.5658C48.0015 10.6342 37.3902 0.0964966 24.3684 0.0964966C11.3466 0.0964966 0.735329 10.6342 0.735329 23.5658C0.735329 36.4974 11.3466 47.0352 24.3684 47.0352ZM26.1409 32.9536C26.1409 33.9158 25.3374 34.7138 24.3684 34.7138C23.3994 34.7138 22.5959 33.9158 22.5959 32.9536V21.2189C22.5959 20.2567 23.3994 19.4587 24.3684 19.4587C25.3374 19.4587 26.1409 20.2567 26.1409 21.2189V32.9536ZM22.1942 13.2863C22.3123 12.9812 22.4778 12.7465 22.6904 12.5118C22.9268 12.3006 23.1867 12.1363 23.4703 12.0189C23.7539 11.9016 24.0612 11.8312 24.3684 11.8312C24.6756 11.8312 24.9829 11.9016 25.2665 12.0189C25.5501 12.1363 25.81 12.3006 26.0463 12.5118C26.259 12.7465 26.4245 12.9812 26.5426 13.2863C26.6608 13.5679 26.7317 13.873 26.7317 14.1781C26.7317 14.4832 26.6608 14.7883 26.5426 15.0699C26.4245 15.3516 26.259 15.6097 26.0463 15.8444C25.81 16.0556 25.5501 16.2199 25.2665 16.3373C24.6993 16.572 24.0375 16.572 23.4703 16.3373C23.1867 16.2199 22.9268 16.0556 22.6904 15.8444C22.4778 15.6097 22.3123 15.3516 22.1942 15.0699C22.076 14.7883 22.0051 14.4832 22.0051 14.1781C22.0051 13.873 22.076 13.5679 22.1942 13.2863Z" fill="#292D32"/>
</svg>
